<svg width="200" height="200" viewBox="0 0 200 200" fill="none" xmlns="http://www.w3.org/2000/svg">
<g clip-path="url(#clip0)">
<path d="M185.902 44.791C151.023 -10.9602 68.4975 -15.2618 26.8445 35.2288C12.6628 52.4208 2.72365 72.9867 0 95.1889C0 95.1889 4.21372 92.3773 6.74067 91.1285C5.93469 96.2799 5.53169 101.486 5.53485 106.699C5.53485 155.909 44.6787 200.986 96.2801 199.98C66.0644 171.315 46.8547 125.303 62.921 85.0993C67.1277 74.5737 72.4219 67.5976 81.4744 60.7399C94.3454 50.9893 114.333 49.4537 128.108 58.2524C134.681 62.4048 139.41 68.8973 141.325 76.4014C143.241 83.9054 142.199 91.8536 138.413 98.6192C139.835 98.4265 150.955 132.066 142.103 121.996C133.041 111.691 119.876 105.661 107.51 100.276C103.295 98.4401 99.9987 95.9645 96.2787 93.447C96.1638 95.687 95.6325 97.9333 95.5054 100.182C94.229 123.445 100.854 143.327 123.113 153.976C151.114 167.373 181.226 151.823 193.135 124.969C205.044 98.1146 200.708 68.4582 185.902 44.791ZM92.3987 41.2516C92.3737 41.2747 92.3471 41.2961 92.3195 41.3158C91.6285 41.8943 90.8299 42.3317 89.9688 42.6032C89.1077 42.8747 88.2013 42.9749 87.3013 42.898C86.4013 42.8211 85.5253 42.5687 84.7235 42.1552C83.9216 41.7417 83.2095 41.1752 82.628 40.488C82.6037 40.4577 82.5775 40.4291 82.5492 40.4024C81.6988 39.3964 81.1539 38.1706 80.9784 36.8682C80.803 35.5658 81.0041 34.2407 81.5582 33.0477C82.1124 31.8547 82.9969 30.8432 84.108 30.1313C85.2191 29.4194 86.5108 29.0367 87.8327 29.0277C88.8499 29.0376 89.8532 29.2644 90.7747 29.6928C91.6961 30.1212 92.5144 30.7412 93.174 31.511C94.3672 32.9065 94.9552 34.7151 94.8096 36.5408C94.664 38.3665 93.7967 40.0605 92.3973 41.2516H92.3987ZM116.203 35.2431C116.179 35.2711 116.153 35.2973 116.125 35.3216C114.726 36.4895 112.918 37.0576 111.098 36.9011C109.278 36.7445 107.595 35.8761 106.419 34.4867C106.394 34.4635 106.372 34.4371 106.354 34.4082C105.505 33.4031 104.96 32.1786 104.784 30.8775C104.608 29.5764 104.808 28.2524 105.36 27.0599C105.913 25.8674 106.795 24.8557 107.904 24.1428C109.013 23.4299 110.303 23.0451 111.623 23.0335C112.641 23.0416 113.645 23.2676 114.566 23.6961C115.488 24.1246 116.306 24.7456 116.964 25.5168C118.16 26.9073 118.751 28.7127 118.609 30.5364C118.466 32.3601 117.601 34.053 116.203 35.2431ZM139.284 45.0194C139.262 45.0408 139.233 45.0622 139.212 45.0836C138.52 45.6639 137.72 46.1029 136.857 46.3756C135.994 46.6484 135.086 46.7496 134.184 46.6734C133.282 46.5972 132.404 46.3451 131.6 45.9315C130.796 45.5179 130.082 44.951 129.499 44.263C129.481 44.2377 129.462 44.2139 129.441 44.1917C128.587 43.1873 128.039 41.9621 127.861 40.6593C127.682 39.3565 127.88 38.0302 128.432 36.8354C128.984 35.6406 129.867 34.6267 130.978 33.9125C132.088 33.1983 133.381 32.8133 134.703 32.8026C135.721 32.8083 136.726 33.0332 137.648 33.4619C138.57 33.8906 139.387 34.5129 140.044 35.2859C141.24 36.6778 141.831 38.4843 141.689 40.309C141.546 42.1338 140.681 43.8278 139.284 45.0194Z" fill="white"/>
<path d="M123.752 84.8836C124.058 84.9871 126.37 85.7043 127.629 86.0625C128.573 86.3308 128.314 85.4916 128.34 84.8394C128.412 82.9391 129.075 80.373 128.14 78.5961C126.661 75.9387 123.397 75.8552 120.889 74.6885C120.422 74.4744 119.962 74.5458 119.843 75.0453C119.311 77.276 119.005 80.1718 120.457 82.2177C121.18 83.4861 122.356 84.4377 123.752 84.8836Z" fill="white"/>
</g>
<defs>
<clipPath id="clip0">
<rect width="200" height="200" rx="2" fill="white"/>
</clipPath>
</defs>
</svg>
